<?xml version="1.0" encoding="iso-8859-1"?>
<!-- Generator: Adobe Illustrator 21.0.2, SVG Export Plug-In . SVG Version: 6.00 Build 0)  -->
<svg xmlns="http://www.w3.org/2000/svg" xmlns:xlink="http://www.w3.org/1999/xlink" version="1.1" id="Layer_1" x="0px" y="0px" viewBox="0 0 40 40" style="enable-background:new 0 0 40 40;" xml:space="preserve">
<g>
	<g>
		<g>
			<g>
				<path style="fill:#DFF0FE;" d="M13.001,38.499c-0.273-0.011-0.273-0.011-0.337-0.321c-0.063-0.31-0.16-0.776-0.634-1.131      c-0.567-0.43-1.271-0.438-1.893-0.444C9.9,36.6,9.669,36.6,9.458,36.568c-0.652-0.095-1.326-0.229-1.986-0.36l-0.509-0.101      c-2.39-0.471-3.413-1.798-3.129-4.06c0.139-1.12-0.067-1.719-0.306-2.413c-0.124-0.36-0.265-0.77-0.375-1.323      c-0.06-0.3-0.129-0.609-0.199-0.927c-0.322-1.44-0.687-3.073-0.257-4.414c0.212-0.663,0.607-1.202,1.025-1.771      c0.339-0.461,0.688-0.938,0.946-1.495c0.443-0.958,0.14-1.847-0.129-2.63c-0.143-0.415-0.277-0.808-0.323-1.22      c-0.041-0.368-0.111-0.766-0.186-1.177c-0.175-0.976-0.355-1.985-0.158-2.812c0.194-0.813,0.699-1.222,1.339-1.738      c0.237-0.192,0.482-0.392,0.726-0.62c0.645-0.607,1.158-1.3,1.653-1.969c1.048-1.414,1.953-2.636,3.849-2.933      C11.891,4.535,12.4,4.5,13,4.5h5.108c2.154,0,3.923-0.495,5.734-1.604l0.422-0.267c0.787-0.503,1.767-1.128,2.638-1.128      c0.288,0,0.547,0.067,0.792,0.207l0.053,0.03l0.724,0.196c2.426,0.646,3.884,1.188,3.677,3.256      c-0.179,1.769,0.373,2.656,2.107,3.392c1.251,0.53,1.847,0.9,1.898,1.993c0.011,0.249-0.07,0.552-0.155,0.873      c-0.14,0.527-0.298,1.124-0.092,1.707c0.133,0.383,0.394,0.621,0.603,0.812c0.115,0.104,0.215,0.195,0.279,0.293      c0.304,0.453,0.552,1.213,0.673,1.728c0.16,0.666-0.203,1.72-0.645,2.417c-0.111,0.178-0.219,0.337-0.321,0.487      c-0.597,0.882-1.112,1.644-0.353,3.166c0.121,0.245,0.237,0.469,0.348,0.679c0.467,0.896,0.775,1.488,0.899,2.63      c0.07,0.64,0.105,1.16,0.11,1.639c0.011,0.975-0.11,1.8-0.37,2.522c-0.309,0.862-0.989,1.321-1.777,1.853      c-0.738,0.497-1.502,1.012-2.003,1.91c-0.759,1.366-1.852,1.655-3.563,1.97c-0.749,0.14-1.499,0.243-2.249,0.347      c-1.146,0.158-2.33,0.321-3.499,0.613c-0.501,0.124-1.049,0.224-1.586,0.321c-0.386,0.07-0.767,0.14-1.123,0.216      c-1.106,0.235-2.026,0.533-2.917,0.821c-1.527,0.493-2.846,0.92-4.722,0.92l-0.493,0.003L13.001,38.499z"/>
				<path style="fill:#4788C7;" d="M26.902,2.001c0.202,0,0.374,0.045,0.544,0.141l0.107,0.061l0.118,0.033      c0.221,0.062,0.445,0.122,0.671,0.182c2.479,0.66,3.472,1.091,3.308,2.722c-0.2,1.988,0.475,3.082,2.41,3.904      c1.202,0.509,1.557,0.775,1.593,1.552c0.008,0.174-0.067,0.454-0.138,0.724c-0.151,0.568-0.338,1.274-0.082,1.997      c0.176,0.506,0.515,0.815,0.74,1.02c0.083,0.075,0.168,0.153,0.202,0.205c0.211,0.315,0.457,0.957,0.6,1.565      c0.109,0.451-0.147,1.344-0.583,2.034c-0.107,0.17-0.212,0.325-0.311,0.471c-0.598,0.884-1.276,1.885-0.387,3.667      c0.123,0.249,0.241,0.475,0.353,0.689c0.456,0.876,0.732,1.405,0.846,2.455c0.068,0.622,0.102,1.126,0.107,1.589      c0.01,0.914-0.102,1.682-0.34,2.348c-0.253,0.707-0.842,1.104-1.586,1.606c-0.751,0.506-1.601,1.079-2.161,2.083      c-0.631,1.134-1.505,1.406-3.217,1.721c-0.734,0.137-1.494,0.241-2.228,0.343c-1.158,0.16-2.355,0.326-3.548,0.623      c-0.482,0.12-1.029,0.219-1.558,0.316c-0.39,0.071-0.775,0.141-1.134,0.218c-1.131,0.241-2.065,0.542-2.967,0.834      c-1.487,0.481-2.772,0.896-4.568,0.896l-0.187,0.001l-0.306,0.002c-0.021,0-0.041,0-0.06,0c-0.074-0.348-0.226-0.919-0.802-1.35      c-0.701-0.533-1.529-0.542-2.194-0.548c-0.23-0.002-0.447-0.005-0.614-0.029c-0.637-0.092-1.316-0.228-1.973-0.359L7.06,35.616      c-2.14-0.42-2.982-1.502-2.73-3.508c0.153-1.234-0.081-1.915-0.329-2.637c-0.125-0.363-0.254-0.737-0.358-1.258      c-0.06-0.302-0.13-0.616-0.202-0.936c-0.323-1.446-0.656-2.942-0.268-4.154c0.187-0.586,0.559-1.092,0.953-1.629      c0.353-0.48,0.717-0.977,0.996-1.579c0.529-1.141,0.175-2.173-0.109-3.003c-0.133-0.389-0.259-0.756-0.299-1.113      c-0.044-0.39-0.118-0.805-0.19-1.207c-0.166-0.927-0.338-1.885-0.165-2.61c0.148-0.619,0.502-0.928,1.166-1.466      c0.232-0.187,0.494-0.4,0.756-0.646c0.676-0.638,1.203-1.348,1.712-2.035c1.023-1.38,1.83-2.47,3.525-2.736      C11.943,5.033,12.428,5,13,5h5.109c2.253,0,4.101-0.518,5.996-1.679c0.135-0.083,0.277-0.174,0.425-0.268      C25.263,2.584,26.175,2.001,26.902,2.001 M26.902,1.001c-1.19,0-2.413,0.909-3.322,1.468C21.813,3.553,20.128,4,18.109,4      C17.611,4,14.144,4,13,4c-0.563,0-1.116,0.03-1.638,0.112C8.292,4.594,7.528,7.323,5.596,9.143      C4.669,10.014,3.7,10.442,3.387,11.75c-0.31,1.296,0.193,2.902,0.333,4.16c0.147,1.306,1.055,2.377,0.495,3.584      c-0.545,1.179-1.575,2.014-1.994,3.325c-0.567,1.773,0.097,3.862,0.442,5.591c0.325,1.625,0.87,2.005,0.675,3.576      c-0.329,2.617,0.966,4.109,3.529,4.612c0.828,0.163,1.691,0.346,2.518,0.466c0.734,0.109,1.706-0.101,2.345,0.384      c0.754,0.564,0.093,1.508,1.249,1.551c0.051,0.002,0.13,0.003,0.219,0.003c0.178,0,0.394-0.003,0.493-0.003      c3.076,0,4.778-1.121,7.743-1.752c0.857-0.184,1.857-0.326,2.725-0.542c1.895-0.472,3.811-0.598,5.718-0.953      c1.741-0.32,3.041-0.657,3.908-2.218c0.955-1.714,3.137-1.944,3.815-3.837C37.91,28.833,38.01,27.928,38,27      c-0.006-0.556-0.051-1.12-0.113-1.687c-0.166-1.52-0.653-2.18-1.297-3.478c-0.743-1.49-0.088-1.988,0.649-3.163      c0.46-0.727,0.918-1.926,0.709-2.799c-0.137-0.583-0.408-1.389-0.741-1.887c-0.243-0.368-0.673-0.547-0.829-0.996      c-0.266-0.753,0.309-1.657,0.275-2.437c-0.07-1.466-1.048-1.941-2.203-2.43c-1.516-0.644-1.962-1.321-1.805-2.883      c0.293-2.917-2.42-3.326-4.704-3.966C27.604,1.081,27.256,1.001,26.902,1.001L26.902,1.001z"/>
			</g>
		</g>
	</g>
</g>
<g>
	<g>
		<path style="fill:#98CCFD;" d="M12.999,38.498c-0.258-0.01-0.258-0.01-0.329-0.33c-0.067-0.307-0.169-0.77-0.639-1.121    c-0.566-0.43-1.271-0.438-1.892-0.444C9.902,36.6,9.671,36.6,9.461,36.568c-0.654-0.095-1.329-0.229-1.99-0.361l-0.507-0.1    c-2.172-0.428-3.215-1.563-3.174-3.464c0.264,0.288,0.569,0.558,0.939,0.788c0.516,0.322,1.173,0.485,1.954,0.485    c2.959,0,7.123-2.337,8.329-3.054c0.315-0.187,0.757-0.298,1.182-0.298c0.209,0,0.407,0.028,0.571,0.082    c0.142,0.047,0.222,0.111,0.331,0.202c0.183,0.149,0.432,0.354,0.891,0.354c0.061,0,0.126-0.004,0.197-0.012    c1.134-0.119,2.146-1.28,2.528-1.773c0.585-0.752,0.527-1.293,0.466-1.866c-0.02-0.185-0.043-0.391-0.045-0.637    c-0.01-1.265,0.895-2.088,2.688-2.446c0.891-0.177,1.255-0.41,1.76-0.733c0.149-0.096,0.318-0.204,0.526-0.327    c0.351-0.209,0.814-0.348,1.306-0.496c0.366-0.11,0.746-0.225,1.092-0.374c2.522-1.101,2.147-2.941,1.547-4.732    c-0.352-1.044-0.159-1.733,0.085-2.605c0.173-0.618,0.368-1.317,0.362-2.203c-0.003-0.537-0.122-1.003-0.237-1.453    c-0.084-0.329-0.164-0.641-0.195-0.97c-0.045-0.468,0.05-0.879,0.15-1.313c0.071-0.306,0.145-0.621,0.175-0.972    c0.105-1.255-0.218-4.256-1.364-6.202c2.089,0.589,3.31,1.198,3.119,3.104c-0.179,1.769,0.373,2.656,2.107,3.392    c1.251,0.53,1.847,0.9,1.898,1.993c0.011,0.249-0.07,0.552-0.155,0.873c-0.14,0.527-0.298,1.124-0.092,1.707    c0.133,0.383,0.394,0.621,0.603,0.812c0.115,0.104,0.215,0.195,0.279,0.293c0.304,0.453,0.552,1.213,0.673,1.728    c0.16,0.666-0.203,1.72-0.645,2.417c-0.111,0.178-0.219,0.337-0.321,0.487c-0.597,0.882-1.112,1.644-0.353,3.166    c0.121,0.245,0.237,0.469,0.348,0.679c0.467,0.896,0.775,1.488,0.899,2.63c0.144,1.301,0.225,2.812-0.26,4.161    c-0.309,0.862-0.989,1.321-1.777,1.853c-0.738,0.497-1.502,1.012-2.003,1.91c-0.759,1.366-1.852,1.655-3.563,1.97    c-0.749,0.14-1.499,0.243-2.249,0.347c-1.146,0.158-2.33,0.321-3.499,0.613c-0.501,0.124-1.049,0.224-1.586,0.321    c-0.386,0.07-0.767,0.14-1.123,0.216c-1.106,0.235-2.028,0.534-2.919,0.822c-1.513,0.489-2.818,0.912-4.664,0.921h0.008    L12.999,38.498z"/>
		<path style="fill:#4788C7;" d="M29.984,2.913c1.276,0.471,1.787,1.021,1.666,2.227c-0.2,1.988,0.475,3.082,2.41,3.904    c1.202,0.509,1.557,0.775,1.593,1.552c0.008,0.174-0.067,0.454-0.138,0.724c-0.151,0.568-0.338,1.274-0.082,1.997    c0.176,0.506,0.515,0.815,0.74,1.02c0.083,0.075,0.168,0.153,0.202,0.205c0.211,0.315,0.457,0.957,0.6,1.565    c0.109,0.451-0.147,1.344-0.583,2.034c-0.107,0.17-0.212,0.325-0.311,0.471c-0.598,0.884-1.276,1.886-0.387,3.667    c0.123,0.249,0.241,0.476,0.353,0.689c0.456,0.876,0.732,1.405,0.846,2.454c0.144,1.306,0.215,2.687-0.233,3.937    c-0.254,0.708-0.842,1.104-1.587,1.606c-0.751,0.506-1.601,1.079-2.161,2.083c-0.631,1.134-1.505,1.406-3.217,1.721    c-0.734,0.137-1.494,0.241-2.228,0.343c-1.158,0.16-2.355,0.326-3.548,0.623c-0.482,0.12-1.029,0.219-1.558,0.316    c-0.39,0.071-0.775,0.141-1.134,0.218c-1.132,0.241-2.066,0.543-2.969,0.835c-1.473,0.477-2.745,0.888-4.501,0.896    c-0.036,0-0.42-0.001-0.613-0.001c-0.077-0.343-0.232-0.917-0.808-1.348c-0.701-0.533-1.529-0.541-2.194-0.548    c-0.23-0.002-0.447-0.005-0.614-0.029c-0.638-0.092-1.318-0.228-1.975-0.359l-0.493-0.098c-1.406-0.276-2.252-0.838-2.595-1.759    c0.596,0.371,1.342,0.56,2.217,0.56c2.997,0,7.002-2.184,8.585-3.123c0.233-0.139,0.596-0.228,0.924-0.228    c0.158,0,0.302,0.02,0.414,0.057c0.051,0.017,0.073,0.033,0.173,0.114c0.199,0.163,0.57,0.467,1.208,0.467    c0.078,0,0.162-0.004,0.247-0.014c1.279-0.136,2.349-1.289,2.872-1.964c0.71-0.912,0.635-1.61,0.569-2.226    c-0.018-0.171-0.04-0.361-0.042-0.587c-0.003-0.37-0.012-1.495,2.285-1.953c0.984-0.195,1.403-0.464,1.933-0.804    c0.145-0.093,0.309-0.198,0.512-0.319c0.296-0.176,0.731-0.306,1.19-0.445c0.382-0.115,0.777-0.234,1.151-0.397    c3.153-1.374,2.287-3.96,1.821-5.35c-0.303-0.897-0.137-1.49,0.093-2.311c0.182-0.649,0.387-1.385,0.381-2.341    c-0.004-0.598-0.136-1.115-0.252-1.571c-0.079-0.311-0.154-0.605-0.182-0.896c-0.037-0.388,0.045-0.743,0.14-1.155    c0.071-0.307,0.151-0.654,0.186-1.043C30.964,7.46,30.81,4.979,29.984,2.913 M27.404,1.063c2.016,1.146,2.616,5.688,2.49,7.182    c-0.072,0.816-0.411,1.481-0.325,2.378C29.65,11.456,29.995,12.149,30,13c0.014,2.01-1.096,2.964-0.421,4.965    c0.597,1.781,0.849,3.19-1.273,4.114c-0.767,0.333-1.764,0.49-2.452,0.898c-0.902,0.533-1.083,0.794-2.13,1.002    c-1.601,0.319-3.105,1.12-3.091,2.942c0.009,0.988,0.314,1.381-0.316,2.191c-0.49,0.632-1.352,1.495-2.188,1.583    c-0.051,0.006-0.098,0.008-0.141,0.008c-0.502,0-0.542-0.358-1.067-0.531c-0.223-0.073-0.473-0.107-0.727-0.107    c-0.512,0-1.045,0.137-1.435,0.369c-1.562,0.927-5.403,2.982-8.074,2.982c-0.649,0-1.228-0.121-1.689-0.409    c-0.709-0.442-1.159-1.046-1.564-1.675c-0.032,0.208-0.063,0.422-0.092,0.652c-0.329,2.617,0.966,4.109,3.529,4.612    c0.828,0.163,1.691,0.346,2.518,0.466c0.734,0.109,1.706-0.101,2.345,0.384c0.754,0.564,0.112,1.508,1.268,1.551    c0.017,0,0.701,0.001,0.75,0.002c3.04-0.014,4.74-1.126,7.686-1.754c0.857-0.184,1.857-0.326,2.725-0.542    c1.895-0.472,3.811-0.598,5.718-0.953c1.741-0.32,3.041-0.657,3.908-2.218c0.955-1.714,3.136-1.944,3.815-3.837    c0.495-1.381,0.452-2.868,0.286-4.383c-0.166-1.52-0.653-2.18-1.297-3.478c-0.743-1.49-0.088-1.988,0.649-3.163    c0.46-0.727,0.918-1.926,0.709-2.799c-0.137-0.583-0.408-1.389-0.741-1.887c-0.243-0.368-0.673-0.547-0.829-0.996    c-0.266-0.753,0.309-1.657,0.275-2.437c-0.07-1.466-1.048-1.941-2.203-2.43c-1.516-0.644-1.962-1.321-1.805-2.883    c0.293-2.917-2.42-3.326-4.704-3.966C27.765,1.173,27.586,1.107,27.404,1.063L27.404,1.063z M13.749,39c-0.019,0-0.038,0-0.057,0    C13.743,39,13.759,39,13.749,39L13.749,39z"/>
	</g>
	<g>
		<g>
			<g>
				<path style="fill:#98CCFD;" d="M19.89,18.499c-0.359-0.02-0.476-0.15-0.514-0.193c-0.276-0.312-0.228-1.066-0.185-1.733      c0.027-0.429,0.054-0.834,0.009-1.193c-0.057-0.458-0.218-0.864-0.374-1.257c-0.162-0.409-0.315-0.796-0.326-1.19      c-0.011-0.33,0.24-1.076,0.433-1.288c0.144-0.156,0.408-0.211,0.715-0.274c0.347-0.071,0.739-0.153,1.087-0.411l0.156-0.117      c0.44-0.332,1.78-1.341,2.47-1.341c0.143,0,0.175,0.039,0.212,0.13c0.103,0.247,0.062,0.485-0.015,0.854      c-0.107,0.52-0.255,1.231,0.45,1.888c0.123,0.113,0.24,0.198,0.345,0.273c0.054,0.038,0.126,0.09,0.152,0.117      c-0.004,0.006-0.006,0.051-0.028,0.138c-0.028,0.117-0.117,0.26-0.211,0.41c-0.163,0.263-0.348,0.56-0.368,0.936      c-0.024,0.394,0.172,0.68,0.314,0.889c0.043,0.063,0.108,0.157,0.117,0.193c0,0.096-0.164,0.182-0.507,0.321      c-0.149,0.062-0.291,0.121-0.405,0.188c-0.739,0.436-1.475,1.025-2.021,1.621l-0.19,0.21c-0.462,0.517-0.771,0.833-1.255,0.833      L19.89,18.499z"/>
				<path style="fill:#4788C7;" d="M23.127,10.046c-0.01,0.091-0.032,0.201-0.06,0.336c-0.109,0.526-0.311,1.507,0.603,2.358      c0.081,0.075,0.161,0.14,0.237,0.198c-0.023,0.038-0.047,0.077-0.067,0.109c-0.175,0.282-0.415,0.668-0.442,1.163      c-0.026,0.411,0.11,0.733,0.249,0.971c-0.005,0.002-0.009,0.004-0.014,0.006c-0.146,0.06-0.311,0.127-0.472,0.221      c-0.789,0.465-1.547,1.073-2.132,1.711l-0.198,0.218c-0.422,0.471-0.62,0.664-0.911,0.664c-0.001,0-0.001,0-0.001,0      c-0.109-0.006-0.164-0.025-0.168-0.025h0c-0.137-0.172-0.085-0.981-0.06-1.369c0.028-0.433,0.057-0.882,0.006-1.287      c-0.065-0.521-0.246-0.977-0.405-1.38c-0.152-0.383-0.283-0.713-0.291-1.022c-0.004-0.205,0.188-0.787,0.298-0.93      c0.055-0.045,0.304-0.096,0.452-0.127c0.377-0.078,0.847-0.176,1.279-0.497l0.16-0.12      C22.249,10.443,22.822,10.146,23.127,10.046 M23.36,9c-0.944,0-2.466,1.219-2.925,1.556c-0.561,0.418-1.403,0.239-1.873,0.752      c-0.287,0.316-0.576,1.195-0.562,1.639c0.024,0.89,0.596,1.632,0.704,2.495c0.15,1.193-0.635,3.459,1.16,3.556      C19.894,18.999,19.923,19,19.952,19c0.831,0,1.281-0.629,1.813-1.205c0.537-0.585,1.232-1.131,1.904-1.527      c0.389-0.226,1.162-0.337,1.159-0.957c-0.001-0.353-0.458-0.617-0.431-1.039c0.024-0.446,0.458-0.819,0.565-1.251      c0.158-0.631-0.2-0.636-0.613-1.016c-0.873-0.813,0.075-1.63-0.315-2.566C23.903,9.124,23.661,9,23.36,9L23.36,9z"/>
			</g>
		</g>
	</g>
	<g>
		<g>
			<g>
				<path style="fill:#98CCFD;" d="M12.945,24.5c-0.188,0-0.445-0.474-0.615-0.787c-0.131-0.241-0.267-0.491-0.429-0.686      c-0.207-0.252-0.463-0.431-0.689-0.589c-0.226-0.158-0.42-0.295-0.542-0.475c-0.096-0.145-0.194-0.597-0.171-0.729      c0.019-0.091,0.141-0.211,0.27-0.338c0.172-0.169,0.387-0.379,0.505-0.678l0.051-0.129c0.538-1.378,0.827-1.568,0.902-1.594      c0.047,0.064,0.092,0.18,0.165,0.378c0.119,0.326,0.319,0.872,1.058,0.984c0.114,0.017,0.212,0.02,0.3,0.021      c0.013,0.075,0.013,0.152,0.012,0.217c-0.002,0.213-0.005,0.479,0.136,0.73c0.149,0.273,0.402,0.382,0.563,0.446      c-0.033,0.056-0.081,0.123-0.115,0.17c-0.066,0.094-0.129,0.185-0.174,0.268c-0.284,0.545-0.496,1.143-0.599,1.687l-0.037,0.195      c-0.083,0.446-0.138,0.687-0.385,0.833C13.07,24.474,12.996,24.5,12.945,24.5z"/>
				<path style="fill:#4788C7;" d="M12.122,19.497c0.189,0.333,0.521,0.704,1.141,0.836c0.01,0.216,0.05,0.476,0.194,0.732      c0.085,0.155,0.189,0.275,0.296,0.369c-0.01,0.017-0.019,0.033-0.028,0.05c-0.303,0.581-0.532,1.227-0.643,1.808l-0.04,0.211      c-0.026,0.141-0.048,0.249-0.071,0.328c-0.072-0.118-0.147-0.256-0.201-0.357c-0.143-0.263-0.29-0.535-0.479-0.762      c-0.253-0.307-0.551-0.516-0.791-0.684c-0.177-0.124-0.345-0.241-0.398-0.318c-0.035-0.067-0.078-0.226-0.096-0.341      c0.034-0.036,0.078-0.079,0.113-0.114c0.195-0.192,0.462-0.454,0.617-0.845l0.055-0.139C11.92,19.94,12.03,19.688,12.122,19.497       M12.206,18c-0.656,0-1.23,1.618-1.398,2.035c-0.173,0.437-0.711,0.651-0.8,1.108c-0.052,0.276,0.09,0.863,0.248,1.101      c0.323,0.477,0.903,0.667,1.262,1.104C11.934,23.847,12.239,25,12.945,25c0.137,0,0.289-0.044,0.461-0.144      c0.516-0.307,0.549-0.834,0.657-1.365c0.099-0.52,0.305-1.075,0.549-1.544c0.143-0.269,0.541-0.617,0.326-0.953      c-0.123-0.194-0.471-0.167-0.604-0.409c-0.139-0.249-0.019-0.615-0.112-0.892c-0.129-0.406-0.333-0.275-0.697-0.327      c-0.778-0.119-0.522-0.917-1.066-1.283C12.374,18.026,12.289,18,12.206,18L12.206,18z"/>
			</g>
		</g>
	</g>
</g>
</svg>
