<?xml version="1.0" encoding="iso-8859-1"?>
<!-- Generator: Adobe Illustrator 21.0.2, SVG Export Plug-In . SVG Version: 6.00 Build 0)  -->
<svg xmlns="http://www.w3.org/2000/svg" xmlns:xlink="http://www.w3.org/1999/xlink" version="1.1" id="Layer_1" x="0px" y="0px" viewBox="0 0 40 40" style="enable-background:new 0 0 40 40;" xml:space="preserve">
<g>
	<path style="fill:#8BB7F0;" d="M8,33.5c-3.584,0-6.5-2.916-6.5-6.5s2.916-6.5,6.5-6.5c2.49,0,4.792,1.458,5.866,3.715l0.136,0.285   h6.464l0.033-1.424l0.303-1.046l6.288-6.288c1.413-1.426,3.38-2.242,5.401-2.242c1.854,0,3.693,0.634,4.636,1.019L21.5,29.974V30.5   h-8.021l-0.149,0.214C12.111,32.458,10.119,33.5,8,33.5z M8,23.5c-1.93,0-3.5,1.57-3.5,3.5s1.57,3.5,3.5,3.5s3.5-1.57,3.5-3.5   S9.93,23.5,8,23.5z"/>
	<path style="fill:#4E7AB5;" d="M32.49,14c1.379,0,2.76,0.372,3.73,0.711L21.297,29.472L21,29.765V30h-7.26h-0.521l-0.298,0.428   C11.795,32.038,9.956,33,8,33c-3.308,0-6-2.692-6-6s2.692-6,6-6c2.298,0,4.423,1.346,5.414,3.43L13.686,25h0.632h5.66h0.977   l0.022-0.977l0.02-0.87l0.249-0.861l6.2-6.2C28.764,14.763,30.603,14,32.49,14 M8,31c2.206,0,4-1.794,4-4s-1.794-4-4-4   s-4,1.794-4,4S5.794,31,8,31 M32.49,13c-2.158,0-4.234,0.855-5.754,2.389l-6.379,6.379L20,23l-0.023,1h-5.66   c-1.124-2.363-3.527-4-6.317-4c-3.866,0-7,3.134-7,7c0,3.866,3.134,7,7,7c2.378,0,4.475-1.188,5.74-3H22v-0.817l16-15.826   C38,14.357,35.286,13,32.49,13L32.49,13z M8,30c-1.657,0-3-1.343-3-3s1.343-3,3-3s3,1.343,3,3S9.657,30,8,30L8,30z"/>
</g>
<g>
	<path style="fill:#C2E8FF;" d="M20.302,30.5c-0.752-1.423-4.351-8.127-7.357-11.961l-0.112-0.144l-0.178-0.037   C9.668,17.73,7.5,15.056,7.5,12c0-3.584,2.916-6.5,6.5-6.5s6.5,2.916,6.5,6.5c0,1.704-0.66,3.316-1.857,4.54l-0.281,0.287   l4.368,6.673h15.584c-0.328,0.887-1.106,2.586-2.667,4.146c-1.814,1.813-4.183,2.854-6.498,2.854H20.302z M14,8.5   c-1.93,0-3.5,1.57-3.5,3.5s1.57,3.5,3.5,3.5s3.5-1.57,3.5-3.5S15.93,8.5,14,8.5z"/>
	<path style="fill:#7496C4;" d="M14,6c3.308,0,6,2.692,6,6c0,1.572-0.609,3.06-1.714,4.19l-0.562,0.574l0.44,0.673l4,6.111   L22.459,24H23h14.567c-0.404,0.889-1.112,2.131-2.274,3.293c-1.72,1.72-3.96,2.707-6.182,2.707l-8.507,0   c-0.992-1.867-4.352-8.054-7.265-11.769l-0.225-0.286l-0.356-0.075C10.001,17.289,8,14.821,8,12C8,8.692,10.692,6,14,6 M14,16   c2.206,0,4-1.794,4-4c0-2.206-1.794-4-4-4s-4,1.794-4,4C10,14.206,11.794,16,14,16 M14,5c-3.866,0-7,3.134-7,7   c0,3.369,2.381,6.181,5.552,6.848C15.921,23.144,20,31,20,31l9.111,0c0.012,0,0.025,0,0.037,0c2.57,0,5.035-1.183,6.852-3   c2.365-2.365,3-5,3-5H23l-4-6.111c1.235-1.262,2-2.984,2-4.889C21,8.134,17.866,5,14,5L14,5z M14,15c-1.657,0-3-1.343-3-3   s1.343-3,3-3s3,1.343,3,3S15.657,15,14,15L14,15z"/>
</g>
<g>
	<circle style="fill:#7496C4;" cx="23" cy="27" r="1"/>
</g>
</svg>
